<!--
  - Copyright (c) 2024.  Footfallfit & FICTIVITY. All rights reserved.
  - This code is confidential and proprietary to Footfallfit & FICTIVITY.
  - Unauthorized copying, modification, or distribution of this code is strictly prohibited.
  -
  - Authors:
  -
  - [@sam1f100](https://www.github.com/sam1f100)
  -
  -->

<svg xmlns="http://www.w3.org/2000/svg" xml:space="preserve"
     style="fill-rule:evenodd;clip-rule:evenodd;stroke-linejoin:round;stroke-miterlimit:2" viewBox="0 0 3113 672"><g transform="matrix(-.3837 0 0 -.37702 989.439 817.753)"><path d="M1555.29 692.256c156.27-173.283 294.81-304 294.81-304s301.11 288.229 516.2 576.933l-278.35 244.661-532.66-517.594Zm541.06 632.354v430.62h-399.47l-535.53-520.17c66.56-148.9 206.52-329.411 343-485.458l592 575.008Zm0 507.9v289.43c-76.93 30.32-159.84 47.05-246.25 47.05-244.09 0-460.3-137.16-592.55-336.48h838.8Zm-884.23-77.28c-57.75-111.72-90.64-197.88-90.64-327.76 0-22.69 3.86-87.36 11.01-113.61l454.41 441.37h-374.78Zm1200.2-726.28c96.5 138.39 166.4 311.95 166.4 408.52 0 290.93-164.99 518.11-404.85 648.29v-848.43l238.45-208.38Z" style="fill:#f6a001"/><clipPath
        id="a"><path d="M1555.29 692.256c156.27-173.283 294.81-304 294.81-304s301.11 288.229 516.2 576.933l-278.35 244.661-532.66-517.594Zm541.06 632.354v430.62h-399.47l-535.53-520.17c66.56-148.9 206.52-329.411 343-485.458l592 575.008Zm0 507.9v289.43c-76.93 30.32-159.84 47.05-246.25 47.05-244.09 0-460.3-137.16-592.55-336.48h838.8Zm-884.23-77.28c-57.75-111.72-90.64-197.88-90.64-327.76 0-22.69 3.86-87.36 11.01-113.61l454.41 441.37h-374.78Zm1200.2-726.28c96.5 138.39 166.4 311.95 166.4 408.52 0 290.93-164.99 518.11-404.85 648.29v-848.43l238.45-208.38Z"/></clipPath><g
        clip-path="url(#a)"><path d="M1200.76 1536.52c-98.21-138.39-169.35-311.95-169.35-408.52 0-290.928 167.91-518.112 412.03-648.289v848.429l-242.68 208.38ZM2072.96 1873.22c-159.03 173.28-300.03 304-300.03 304s-306.44-288.23-525.33-576.94l274.73-252.6 550.63 525.54ZM1522.33 1240.86V810.243h406.53l545.02 520.167c-67.74 148.9-210.18 329.41-349.08 485.46l-602.47-575.01ZM1522.33 732.964V443.53c78.29-30.321 162.67-47.044 250.6-47.044 248.41 0 468.46 137.151 603.05 336.478h-853.65Z" style="fill:#f6a001" transform="matrix(-.9826 0 0 -1 3592.2 2565.47)"/></g></g>
    <path d="M1301.03 1631.37h-40.5v73.89h40.5v206.91h96.89v-206.91h64.59v-73.89h-64.59v-56.93c0-38.86 5.47-55.28 30.1-55.28 15.88 0 29.01 7.66 29.01 7.66l33.94-68.42s-30.65-25.18-79.91-25.18c-70.07 0-109.48 56.38-110.03 138.48v59.67ZM1469.62 1772.04c0 86.49 67.88 148.34 169.14 148.34 96.89 0 167.5-61.85 167.5-148.34 0-87.58-74.44-148.88-167.5-148.88-94.69 0-169.14 61.3-169.14 148.88Zm102.91 0c0-38.86 29.01-66.23 65.68-66.23 36.13 0 65.14 27.37 65.14 66.23 0 38.32-27.37 65.69-65.14 65.69-39.41 0-65.68-27.37-65.68-65.69ZM1831.44 1772.04c0 86.49 67.87 148.34 169.13 148.34 96.89 0 167.5-61.85 167.5-148.34 0-87.58-74.44-148.88-167.5-148.88-94.69 0-169.13 61.3-169.13 148.88Zm102.9 0c0-38.86 29.01-66.23 65.69-66.23 36.12 0 65.13 27.37 65.13 66.23 0 38.32-27.36 65.69-65.13 65.69-39.41 0-65.69-27.37-65.69-65.69ZM2227.18 1631.37h-40.5v73.89h40.5v107.84c0 49.81 18.62 107.28 95.79 107.28 39.96 0 71.16-17.52 71.16-17.52l-24.08-78.27s-11.5 8.76-24.08 8.76c-15.33 0-21.9-12.59-21.9-38.87v-89.22h59.12v-73.89h-59.12v-104.55h-96.89v104.55ZM2443.4 1631.37h-40.51v73.89h40.51v206.91h96.88v-206.91h64.59v-73.89h-64.59v-56.93c0-38.86 5.48-55.28 30.11-55.28 15.87 0 29.01 7.66 29.01 7.66l33.94-68.42s-30.66-25.18-79.92-25.18c-70.06 0-109.48 56.38-110.02 138.48v59.67ZM2610.89 1772.04c0 82.11 57.48 148.34 139.58 148.34 38.32 0 71.16-16.97 91.96-39.96h1.1v31.75h95.79v-280.8h-96.89v26.82c-22.99-22.44-54.19-35.03-91.96-35.03-82.1 0-139.58 66.78-139.58 148.88Zm102.91 0c0-38.86 29.01-66.23 65.68-66.23 36.13 0 65.14 27.37 65.14 66.23 0 38.32-27.37 65.69-65.14 65.69-39.41 0-65.68-27.37-65.68-65.69ZM3005 1441.43h96.885v470.739H3005zM3167.57 1441.43h96.885v470.739h-96.885z"
          style="fill:#fff;fill-rule:nonzero" transform="matrix(.89967 0 0 .87872 -539.734 -1131.124)"/>
    <path d="M2443.4 1631.37h-40.51v73.89h40.51v206.91h96.88v-206.91h64.59v-73.89h-64.59v-56.93c0-38.86 5.48-55.28 30.11-55.28 15.87 0 29.01 7.66 29.01 7.66l33.94-68.42s-30.66-25.18-79.92-25.18c-70.06 0-109.48 56.38-110.02 138.48v59.67Z"
          style="fill:#f6a001;fill-rule:nonzero" transform="matrix(.89967 0 0 .87872 285.74 -1131.124)"/>
    <path d="M1334.42 1457.85c31.75 0 57.48 25.73 57.48 57.48 0 31.74-25.73 57.47-57.48 57.47-31.74 0-57.47-25.73-57.47-57.47 0-31.75 25.73-57.48 57.47-57.48Zm-49.81 173.52h96.89v280.8h-96.89v-280.8ZM1466.34 1631.37h-40.51v73.89h40.51v107.84c0 49.81 18.61 107.28 95.79 107.28 39.96 0 71.16-17.52 71.16-17.52l-24.09-78.27s-11.49 8.76-24.08 8.76c-15.33 0-21.9-12.59-21.9-38.87v-89.22h59.12v-73.89h-59.12v-104.55h-96.88v104.55Z"
          style="fill:#f6a001;fill-rule:nonzero" transform="matrix(.89967 0 0 .87872 1506.672 -1130.354)"/>
    <path d="M2228.48 684.745V572.357h-41.98V557.32h101v15.037h-42.15v112.388h-16.87ZM2304.28 684.745V557.32h25.38l30.16 90.223c2.78 8.402 4.81 14.689 6.08 18.862 1.45-4.636 3.71-11.445 6.78-20.427l30.51-88.658h22.69v127.425h-16.26V578.094l-37.02 106.651h-15.21l-36.86-108.477v108.477h-16.25Z"
          style="fill:#fff;fill-rule:nonzero" transform="translate(1252.759 -291.74) scale(.76643)"/></svg>