
<svg viewBox="0 0 766 214" style="fill-rule:evenodd;clip-rule:evenodd;stroke-linejoin:round;stroke-miterlimit:2" xmlns="http://www.w3.org/2000/svg">
    <path d="M146.455 147.431c0-36.614-25.63-66.393-62.244-66.393-16.842 0-30.755 5.614-41.007 15.622V0H0v209.918h42.716v-14.157h.488c9.276 10.252 23.921 17.819 41.007 17.819 36.614 0 62.244-29.535 62.244-66.149Zm-45.889 0c0 17.086-11.717 29.291-29.291 29.291-16.843 0-29.047-12.205-29.047-29.291 0-17.331 12.937-29.535 29.047-29.535 16.354 0 29.291 12.204 29.291 29.535ZM251.902 209.918h43.204v-70.786c0-12.449 12.693-24.409 25.63-24.409 13.913 0 22.456 11.96 22.456 24.409v70.786h43.204v-82.503c0-34.905-31.976-46.377-54.92-46.377-13.669 0-26.118 7.079-35.882 16.842h-.488V0h-43.204v209.918Z" style="fill-rule: nonzero; fill: rgb(237, 237, 237);" transform="matrix(1, 0, 0, 1, 0, 5.684341886080802e-14)"/>
    <path d="M413.246 84.699h43.204v125.219h-43.204z" style="fill: rgb(237, 237, 237);" transform="matrix(1, 0, 0, 1, 0, 5.684341886080802e-14)"/>
    <path d="M517.229 84.7H465.97l67.125 125.218h29.291L629.511 84.7h-51.259l-30.512 68.101L517.229 84.7ZM765.226 153.289c.244-1.464.244-4.149.244-5.858 0-43.936-29.047-66.393-67.125-66.393-37.834 0-68.834 29.779-68.834 66.393 0 36.37 31 66.149 68.834 66.149 27.826 0 50.771-9.032 64.928-32.709l-31.244-15.621c-10.496 11.228-16.598 13.913-30.511 13.913-10.984 0-27.094-6.591-27.094-25.874h90.802Zm-89.582-23.921c.732-11.472 9.032-20.259 23.921-20.259 12.693 0 21.724 7.078 23.677 20.259h-47.598Z" style="fill-rule: nonzero; fill: rgb(237, 237, 237);" transform="matrix(1, 0, 0, 1, 0, 5.684341886080802e-14)"/>
    <path d="M195.537 65.272 222.4 80.856v31.168l-26.863 15.584-26.863-15.584V80.856l26.863-15.584ZM195.537 148.024l26.863 15.584v31.168l-26.863 15.584-26.863-15.584v-31.168l26.863-15.584Z" style="fill:#f2af0d" transform="matrix(1, 0, 0, 1, 0, 5.684341886080802e-14)"/>
</svg>