<svg xmlns="http://www.w3.org/2000/svg" xml:space="preserve" width="2588" height="430" fill-rule="evenodd" stroke-linejoin="round" clip-rule="evenodd"><g class="layer"><path fill="#3f3f3f" fill-rule="nonzero" d="M563.07 198.32h-61.15v224.79h-36.37V198.32h-54.54v-33.06h54.54V94.74c0-34.16 7.9-58.49 23.69-73C505.03 7.23 525.97-.02 552.05-.02c5.14 0 10.37.37 15.7 1.11a214.84 214.84 0 0 1 15.7 2.75l-6.61 33.06c-4.41-1.11-9-2.03-13.77-2.75a94.05 94.05 0 0 0-14.33-1.11c-9.91 0-17.99 1.65-24.24 4.96s-11.02 7.98-14.32 14.05c-3.31 6.06-5.51 13.13-6.62 21.21-1.1 8.08-1.65 16.71-1.65 25.89v66.11h61.15v33.06-.01zm263.9 95.86c0-14.32-2.29-27.73-6.88-40.21-4.59-12.49-11.11-23.33-19.56-32.51s-18.65-16.44-30.58-21.76c-11.94-5.33-25.43-7.99-40.49-7.99-15.06 0-28.55 2.66-40.49 7.99-11.94 5.32-22.04 12.58-30.3 21.76s-14.69 20.02-19.28 32.51c-4.59 12.48-6.89 25.89-6.89 40.21 0 14.33 2.3 27.73 6.89 40.22 4.59 12.48 11.02 23.32 19.28 32.5s18.37 16.44 30.3 21.76c11.94 5.32 25.43 7.98 40.49 7.98 15.06 0 28.56-2.66 40.49-7.98 11.94-5.33 22.13-12.58 30.58-21.76 8.45-9.18 14.97-20.02 19.56-32.5 4.59-12.49 6.88-25.89 6.88-40.22zm39.67 0c0 19.47-3.39 37.47-10.19 54-6.79 16.53-16.25 30.85-28.37 42.97-12.13 12.12-26.54 21.58-43.26 28.38-16.71 6.79-35.17 10.19-55.37 10.19-19.83 0-38.1-3.4-54.82-10.19s-31.13-16.26-43.25-28.38-21.58-26.44-28.38-42.97c-6.79-16.53-10.19-34.53-10.19-54s3.4-37.46 10.19-53.99c6.8-16.53 16.26-30.86 28.38-42.98s26.54-21.58 43.25-28.37c16.71-6.79 34.99-10.19 54.82-10.19 20.2 0 38.66 3.4 55.37 10.19 16.72 6.8 31.13 16.26 43.26 28.37 12.12 12.12 21.58 26.45 28.37 42.98 6.8 16.53 10.19 34.52 10.19 53.99zm287.05 0c0-14.32-2.3-27.73-6.89-40.21-4.59-12.49-11.11-23.33-19.56-32.51s-18.64-16.44-30.58-21.76c-11.94-5.33-25.44-7.99-40.49-7.99s-28.56 2.66-40.49 7.99c-11.94 5.32-22.04 12.58-30.3 21.76s-14.69 20.02-19.28 32.51c-4.59 12.48-6.88 25.89-6.88 40.21 0 14.33 2.29 27.73 6.88 40.22 4.59 12.48 11.02 23.32 19.28 32.5s18.37 16.44 30.3 21.76c11.94 5.32 25.44 7.98 40.49 7.98s28.56-2.66 40.49-7.98c11.94-5.33 22.13-12.58 30.58-21.76s14.97-20.02 19.56-32.5c4.59-12.49 6.89-25.89 6.89-40.22zm39.67 0c0 19.47-3.4 37.47-10.19 54-6.8 16.53-16.26 30.85-28.38 42.97s-26.54 21.58-43.25 28.38-35.17 10.19-55.37 10.19c-19.84 0-38.1-3.4-54.82-10.19-16.71-6.79-31.12-16.26-43.25-28.38-12.12-12.12-21.58-26.44-28.37-42.97-6.8-16.53-10.19-34.53-10.19-54s3.39-37.46 10.19-53.99c6.79-16.53 16.25-30.86 28.37-42.98 12.13-12.12 26.54-21.58 43.25-28.37 16.72-6.79 34.99-10.19 54.82-10.19 20.2 0 38.66 3.4 55.37 10.19 16.71 6.8 31.13 16.26 43.25 28.37s21.58 26.45 28.38 42.98c6.79 16.53 10.19 34.52 10.19 53.99zm238.51-95.86h-113.45v152.06c0 9.55.92 17.36 2.75 23.42 1.84 6.06 4.41 10.74 7.72 14.05 3.3 3.3 7.25 5.6 11.85 6.88 4.59 1.29 9.64 1.93 15.15 1.93 6.25 0 12.67-.92 19.28-2.75s12.67-4.22 18.18-7.16l1.65 33.6c-13.59 6.25-29.94 9.36-49.04 9.36-6.97 0-14.23-.92-21.76-2.75s-14.42-5.33-20.66-10.47c-6.24-5.14-11.38-12.12-15.42-20.94-4.04-8.81-6.06-20.38-6.06-34.71V198.31h-54.54v-33.06h54.54V92.52h36.36v72.73h113.45v33.06z"/><path fill="#3f3f3f" fill-rule="nonzero" d="M1562.48 198.32h-61.15v224.79h-36.37V198.32h-54.54v-33.06h54.54V94.74c0-34.16 7.9-58.49 23.69-73 15.79-14.51 36.73-21.76 62.81-21.76 5.14 0 10.38.37 15.7 1.11a214.84 214.84 0 0 1 15.7 2.75l-6.61 33.06c-4.41-1.11-9-2.03-13.77-2.75a94.03 94.03 0 0 0-14.32-1.11c-9.92 0-18 1.65-24.25 4.96s-11.02 7.98-14.32 14.05c-3.31 6.06-5.51 13.13-6.61 21.21-1.11 8.08-1.65 16.71-1.65 25.89v66.11h61.15v33.06-.01zm189.53 96.42c-9.18 0-20.66.46-34.44 1.37-13.77.92-26.99 3.13-39.67 6.61-12.67 3.49-23.5 8.91-32.5 16.26s-13.5 17.45-13.5 30.3c0 8.45 1.75 15.7 5.24 21.76 3.49 6.06 8.17 11.02 14.05 14.88 5.88 3.86 12.4 6.61 19.56 8.26a96.564 96.564 0 0 0 21.76 2.47c13.23 0 24.7-2.2 34.44-6.61 9.73-4.41 17.9-10.37 24.51-17.9s11.48-16.35 14.6-26.45 4.68-20.85 4.68-32.23v-18.73h-18.73zm18.73-29.76v-6.61c0-44.44-22.04-66.66-66.11-66.66-30.11 0-56.38 10.1-78.78 30.3l-22.04-25.89c24.24-24.98 60.61-37.47 109.08-37.47 12.49 0 24.52 1.84 36.09 5.51 11.57 3.67 21.58 9.27 30.03 16.8s15.25 16.99 20.38 28.37c5.14 11.38 7.71 24.98 7.71 40.77v115.15c0 9.92.46 20.29 1.38 31.13s1.93 19.74 3.03 26.72h-35.26c-1.1-6.25-1.93-13.04-2.48-20.38-.55-7.35-.82-14.51-.82-21.48h-1.11c-10.65 17.26-23.23 29.66-37.74 37.19-14.5 7.53-32.23 11.29-53.16 11.29-11.39 0-22.41-1.56-33.06-4.68-10.65-3.12-20.11-7.9-28.37-14.32-8.26-6.43-14.87-14.33-19.83-23.69-4.96-9.36-7.44-20.29-7.44-32.78 0-20.94 5.42-37.37 16.26-49.31s24.43-20.85 40.77-26.72c16.35-5.88 33.79-9.55 52.34-11.02 18.55-1.47 35.54-2.21 50.96-2.21h18.18zM1899.66 6.59h36.36V423.1h-36.36V6.59zm132.22 0h36.36V423.1h-36.36V6.59z"/><path fill="#ffba00" fill-rule="nonzero" d="M2372.375 66.115c0 7.711-2.755 14.048-8.265 19.01s-11.573 7.438-18.183 7.438-12.673-2.482-18.183-7.438-8.264-11.299-8.264-19.01c0-7.71 2.755-14.047 8.264-19.01 5.51-4.956 11.573-7.437 18.183-7.437s12.674 2.481 18.183 7.438c5.51 4.962 8.265 11.299 8.265 19.01zm-8.265 357.01h-36.366V165.28h36.366v257.843zm-88.153-224.786h-61.152v224.785h-36.366V198.34h-54.542V165.28h54.542V94.764c0-34.158 7.9-58.489 23.692-72.999 15.793-14.51 36.73-21.764 62.807-21.764 5.145 0 10.374.37 15.701 1.107a214.84 214.84 0 0 1 15.702 2.755l-6.61 33.057c-4.41-1.107-9-2.025-13.774-2.755a94.027 94.027 0 0 0-14.321-1.107c-9.919 0-18 1.654-24.246 4.963s-11.02 7.984-14.321 14.047c-3.308 6.063-5.51 13.13-6.61 21.211-1.107 8.082-1.654 16.711-1.654 25.894v66.115h61.152v33.057-.006z"/><path fill="#ffba00" fill-rule="nonzero" d="M2585.073 198.32H2510.7v152.06c0 9.547.918 17.355 2.755 23.419 1.836 6.056 4.409 10.739 7.71 14.047 3.309 3.302 7.256 5.6 11.847 6.884 4.591 1.29 9.638 1.927 15.148 1.927 6.245 0 12.673-.918 19.283-2.754 6.617-1.837 12.674-4.22 18.183-7.158l1.654 33.605c-13.591 6.245-29.937 9.365-49.032 9.365-6.982 0-14.236-.918-21.765-2.755s-14.419-5.327-20.658-10.465c-6.245-5.145-11.39-12.12-15.428-20.938-4.044-8.812-6.063-20.384-6.063-34.712V198.32h-119.667v-33.057h119.667V92.537h36.366v72.725h74.373v33.057z"/><g transform="matrix(-.23843 0 0 -.23429 614.86 513.08)"><path fill="#e90202" d="M1555.3 692.26c156.27-173.28 294.81-304 294.81-304s301.11 288.23 516.2 576.93l-278.35 244.66-532.66-517.59zm541.06 632.35v430.62h-399.47l-535.53-520.17c66.56-148.9 206.52-329.41 343-485.46l592 575.01zm0 507.9v289.43c-76.93 30.32-159.84 47.05-246.25 47.05-244.09 0-460.3-137.16-592.55-336.48h838.8zm-884.23-77.28c-57.75-111.72-90.64-197.88-90.64-327.76 0-22.69 3.86-87.36 11.01-113.61l454.41 441.37h-374.78zm1200.2-726.28c96.5 138.39 166.4 311.95 166.4 408.52 0 290.93-164.99 518.11-404.85 648.29v-848.43l238.45-208.38z"/><clipPath id="a"><path d="M1555.3 692.26c156.27-173.28 294.81-304 294.81-304s301.11 288.23 516.2 576.93l-278.35 244.66-532.66-517.59zm541.06 632.35v430.62h-399.47l-535.53-520.17c66.56-148.9 206.52-329.41 343-485.46l592 575.01zm0 507.9v289.43c-76.93 30.32-159.84 47.05-246.25 47.05-244.09 0-460.3-137.16-592.55-336.48h838.8zm-884.23-77.28c-57.75-111.72-90.64-197.88-90.64-327.76 0-22.69 3.86-87.36 11.01-113.61l454.41 441.37h-374.78zm1200.2-726.28c96.5 138.39 166.4 311.95 166.4 408.52 0 290.93-164.99 518.11-404.85 648.29v-848.43l238.45-208.38z"/></clipPath><g clip-path="url(#a)"><path fill="red" d="M2412.294 1029c96.501 138.39 166.403 311.95 166.403 408.52 0 290.93-164.988 518.11-404.86 648.29v-848.43L2412.294 1029z"/><path fill="#07b35a" d="M1555.27 692.3c156.263-173.28 294.81-304 294.81-304s301.108 288.23 516.189 576.94l-269.95 252.6L1555.27 692.3z"/><path fill="#f6a001" d="M2096.388 1324.6v430.62h-399.456l-535.537-520.17c66.561-148.9 206.523-329.41 343.006-485.46l591.987 575.01z"/><path fill="#01aff6" d="M2096.388 1832.54v289.43c-76.928 30.32-159.84 47.04-246.24 47.04-244.087 0-460.308-137.15-592.556-336.48h838.796v.01z"/></g></g><path fill="#4e4e4e" d="M222.922 189.239c3.048 3.017 5.755 6.273 8.012 9.282l32.163-17.137c-21.66-50.755-44.54-54.613-56.6-52.158-7.697 1.567-13.675 7.778-14.721 15.562-1.567 11.654 6.717 22.63 6.717 22.63 6.07 8.031 14.206 14.04 18.071 16.646 2.27 1.532 4.412 3.248 6.359 5.176v-.001zm13.917 18.028c.54.893.933 1.579 1.167 1.993.184.328.376.65.58.963 14 21.43 26.791 11.884 26.791 11.884 10.26-7.76 6.451-20.023 4.064-25.41a214.063 214.063 0 0 1-2.37-5.539l-30.232 16.109zm-12.413 26.61c3.142 2.92 6.508 5.489 9.608 7.62l-15.782 32.848c-51.614-19.524-56.421-42.225-54.472-54.378 1.244-7.755 7.2-13.986 14.934-15.357 11.579-2.05 22.89 5.77 22.89 5.77 8.279 5.729 14.619 13.608 17.385 17.361 1.624 2.204 3.43 4.273 5.436 6.136zm18.591 13.156c.915.5 1.617.865 2.041 1.081.334.17.665.349.987.54 21.993 13.095 12.989 26.273 12.989 26.273-7.326 10.574-19.736 7.28-25.218 5.118a220.424 220.424 0 0 0-5.635-2.136l14.836-30.876z"/></g></svg>