<?xml version="1.0" encoding="utf-8"?>
<svg viewBox="65.3783 21.9614 250.4048 300.6814" width="250.405" height="300.681" xmlns="http://www.w3.org/2000/svg">
    <g transform="matrix(-0.1718350052833557, 0, 0, -0.16885100305080414, 508.49435424804693, 388.2008972167969)" style="">
        <path fill="#e90202" d="M1555.3 692.26c156.27-173.28 294.81-304 294.81-304s301.11 288.23 516.2 576.93l-278.35 244.66-532.66-517.59zm541.06 632.35v430.62h-399.47l-535.53-520.17c66.56-148.9 206.52-329.41 343-485.46l592 575.01zm0 507.9v289.43c-76.93 30.32-159.84 47.05-246.25 47.05-244.09 0-460.3-137.16-592.55-336.48h838.8zm-884.23-77.28c-57.75-111.72-90.64-197.88-90.64-327.76 0-22.69 3.86-87.36 11.01-113.61l454.41 441.37h-374.78zm1200.2-726.28c96.5 138.39 166.4 311.95 166.4 408.52 0 290.93-164.99 518.11-404.85 648.29v-848.43l238.45-208.38z"/>
        <clipPath id="a">
            <path d="M1555.3 692.26c156.27-173.28 294.81-304 294.81-304s301.11 288.23 516.2 576.93l-278.35 244.66-532.66-517.59zm541.06 632.35v430.62h-399.47l-535.53-520.17c66.56-148.9 206.52-329.41 343-485.46l592 575.01zm0 507.9v289.43c-76.93 30.32-159.84 47.05-246.25 47.05-244.09 0-460.3-137.16-592.55-336.48h838.8zm-884.23-77.28c-57.75-111.72-90.64-197.88-90.64-327.76 0-22.69 3.86-87.36 11.01-113.61l454.41 441.37h-374.78zm1200.2-726.28c96.5 138.39 166.4 311.95 166.4 408.52 0 290.93-164.99 518.11-404.85 648.29v-848.43l238.45-208.38z"/>
        </clipPath>
        <g clip-path="url(#a)">
            <path fill="red" d="M2412.294 1029c96.501 138.39 166.403 311.95 166.403 408.52 0 290.93-164.988 518.11-404.86 648.29v-848.43L2412.294 1029z"/>
            <path fill="#07b35a" d="M1555.27 692.3c156.263-173.28 294.81-304 294.81-304s301.108 288.23 516.189 576.94l-269.95 252.6L1555.27 692.3z"/>
            <path fill="#f6a001" d="M2096.388 1324.6v430.62h-399.456l-535.537-520.17c66.561-148.9 206.523-329.41 343.006-485.46l591.987 575.01z"/>
            <path fill="#01aff6" d="M2096.388 1832.54v289.43c-76.928 30.32-159.84 47.04-246.24 47.04-244.087 0-460.308-137.15-592.556-336.48h838.796v.01z"/>
        </g>
    </g>
    <path d="M 226.027 154.811 C 228.224 156.985 230.175 159.332 231.801 161.5 L 254.981 149.15 C 239.371 112.571 222.882 109.79 214.19 111.56 C 208.642 112.689 204.335 117.165 203.581 122.775 C 202.452 131.175 208.421 139.084 208.421 139.084 C 212.796 144.872 218.66 149.203 221.445 151.081 C 223.081 152.185 224.625 153.422 226.028 154.812 L 226.028 154.811 L 226.027 154.811 Z M 236.057 167.803 C 236.446 168.447 236.729 168.941 236.898 169.24 C 237.031 169.476 237.17 169.708 237.316 169.934 C 247.406 185.378 256.625 178.498 256.625 178.498 C 264.019 172.905 261.274 164.068 259.553 160.185 C 258.965 158.863 258.396 157.533 257.845 156.194 L 236.057 167.803 Z M 227.111 186.981 C 229.376 189.085 231.801 190.937 234.036 192.472 L 222.662 216.146 C 185.464 202.075 181.999 185.715 183.404 176.956 C 184.301 171.367 188.593 166.877 194.167 165.888 C 202.512 164.411 210.663 170.047 210.663 170.047 C 216.63 174.176 221.2 179.854 223.193 182.559 C 224.364 184.147 225.665 185.639 227.111 186.981 L 227.111 186.981 Z M 240.509 196.462 C 241.169 196.823 241.675 197.086 241.981 197.241 C 242.222 197.364 242.46 197.493 242.692 197.631 C 258.542 207.068 252.053 216.565 252.053 216.565 C 246.773 224.186 237.829 221.812 233.878 220.254 C 232.532 219.722 231.178 219.209 229.818 218.714 L 240.509 196.462 Z" style="fill: rgb(255, 255, 255);" transform="matrix(1, 0, 0, 1, 0, 2.842170943040401e-14)"/>
</svg>