<?xml version="1.0" encoding="UTF-8" standalone="no"?>
<!DOCTYPE svg PUBLIC "-//W3C//DTD SVG 1.1//EN" "http://www.w3.org/Graphics/SVG/1.1/DTD/svg11.dtd">
<svg width="100%" height="100%" viewBox="0 0 2785 756" version="1.1" xmlns="http://www.w3.org/2000/svg" xmlns:xlink="http://www.w3.org/1999/xlink" xml:space="preserve" xmlns:serif="http://www.serif.com/" style="fill-rule:evenodd;clip-rule:evenodd;stroke-linejoin:round;stroke-miterlimit:2;">
    <g transform="matrix(1,0,0,1,-399.164,-1560.69)">
        <g transform="matrix(0.738656,0,0,0.738656,-394.36,1022.6)">
            <g transform="matrix(1.67176,0,0,1.67176,-713.901,-813.177)">
                <g transform="matrix(1,0,0,1,152.892,0)">
                    <path d="M1261.9,1457.82C1252.98,1469.95 1242.56,1480.64 1230.64,1489.89C1212.27,1504.16 1191.7,1515.13 1168.93,1522.81C1146.17,1530.49 1123.27,1534.33 1100.23,1534.33C1064.58,1534.33 1030.71,1527.61 998.617,1514.17C966.529,1500.73 939.239,1478.65 916.75,1447.93L970.231,1409.26C982.847,1430.65 1000.4,1447.8 1022.89,1460.69C1045.38,1473.58 1071.98,1480.02 1102.7,1480.02C1117.51,1480.02 1132.32,1477.69 1147.13,1473.03C1161.94,1468.37 1175.24,1461.51 1187.04,1452.46C1198.83,1443.41 1208.57,1432.3 1216.24,1419.13C1217.75,1416.55 1219.12,1413.88 1220.33,1411.15C1229.56,1424.14 1239.8,1436.27 1251.05,1447.52C1254.58,1451.05 1258.2,1454.49 1261.9,1457.82ZM1168.23,1281.84C1157.62,1276.13 1146.06,1271.15 1133.55,1266.92C1115.73,1260.89 1097.35,1254.85 1078.43,1248.82C1059.5,1242.79 1041.13,1235.93 1023.3,1228.25C1005.47,1220.57 989.567,1210.83 975.579,1199.04C961.592,1187.25 950.347,1172.44 941.845,1154.61C933.343,1136.78 929.092,1114.43 929.092,1087.55C929.092,1059.58 934.44,1035.17 945.136,1014.32C955.832,993.48 970.094,976.202 987.921,962.489C1005.75,948.776 1025.91,938.628 1048.4,932.046C1070.88,925.463 1093.92,922.172 1117.51,922.172C1150.42,922.172 1180.32,927.383 1207.19,937.805C1231.84,947.363 1254.88,963.609 1276.3,986.544C1267.45,993.511 1259.04,1000.99 1251.05,1008.98C1243.53,1016.49 1236.47,1024.4 1229.85,1032.7C1204.08,995.216 1166.64,976.476 1117.51,976.476C1102.15,976.476 1087.07,978.533 1072.26,982.647C1057.45,986.761 1044.14,993.069 1032.35,1001.57C1020.56,1010.07 1011.1,1021.04 1003.97,1034.48C996.834,1047.92 993.269,1063.69 993.269,1081.79C993.269,1108.12 1000.67,1128.55 1015.48,1143.09C1030.29,1157.63 1048.67,1169.56 1070.61,1178.88C1092.55,1188.21 1116.55,1196.57 1142.61,1203.98C1150.12,1206.11 1157.47,1208.45 1164.64,1211C1164.38,1216.69 1164.25,1222.44 1164.25,1228.25C1164.25,1246.73 1165.58,1264.6 1168.23,1281.84Z" style="fill:rgb(226,226,226);"/>
                </g>
                <g transform="matrix(1,0,0,1,199.32,0)">
                    <path d="M1683.42,1427.36C1673.55,1442.17 1661.35,1456.16 1646.81,1469.33C1632.28,1482.49 1615.68,1493.87 1597.03,1503.47C1578.38,1513.07 1558.22,1520.61 1536.56,1526.1C1514.89,1531.58 1491.99,1534.33 1467.86,1534.33C1424.52,1534.33 1384.34,1526.65 1347.32,1511.29C1310.29,1495.93 1278.2,1474.67 1251.05,1447.52C1223.9,1420.37 1202.64,1388.14 1187.29,1350.84C1171.93,1313.54 1164.25,1272.68 1164.25,1228.25C1164.25,1183.82 1171.93,1142.95 1187.29,1105.65C1202.64,1068.35 1223.9,1036.13 1251.05,1008.98C1278.2,981.824 1310.29,960.569 1347.32,945.21C1384.34,929.851 1424.52,922.172 1467.86,922.172C1504.06,922.172 1540.26,929.303 1576.46,943.565C1612.66,957.826 1643.66,981.413 1669.44,1014.32L1617.6,1053C1611.57,1043.67 1603.34,1034.35 1592.92,1025.02C1582.5,1015.7 1570.57,1007.47 1557.13,1000.34C1543.69,993.206 1529.29,987.447 1513.93,983.058C1498.57,978.67 1483.21,976.476 1467.86,976.476C1430.56,976.476 1397.1,983.333 1367.48,997.046C1337.85,1010.76 1312.76,1029.13 1292.19,1052.17C1271.62,1075.21 1255.85,1101.95 1244.88,1132.39C1233.91,1162.84 1228.42,1194.79 1228.42,1228.25C1228.42,1261.71 1233.91,1293.66 1244.88,1324.1C1255.85,1354.55 1271.62,1381.29 1292.19,1404.33C1312.76,1427.36 1337.85,1445.74 1367.48,1459.45C1397.1,1473.16 1430.56,1480.02 1467.86,1480.02C1483.21,1480.02 1498.43,1478.65 1513.52,1475.91C1528.6,1473.16 1543.41,1468.5 1557.95,1461.92C1572.49,1455.34 1586.2,1446.42 1599.09,1435.18C1611.98,1423.93 1623.91,1409.81 1634.88,1392.81L1683.42,1427.36Z" style="fill:rgb(226,226,226);fill-rule:nonzero;"/>
                </g>
            </g>
            <g transform="matrix(1,0,0,1,1347.82,-28.0242)">
                <g transform="matrix(1,0,0,1,-1441.62,90.8395)">
                    <path d="M2101.59,1152.43L2079.18,1152.43L2079.18,952.667L2005.44,952.667L2005.44,932.13L2175.33,932.13L2175.33,952.667L2101.59,952.667L2101.59,1152.43Z" style="fill:rgb(118,118,118);fill-rule:nonzero;"/>
                    <path d="M2231.96,1029.52L2271.79,1029.52C2281.74,1029.52 2290.2,1028.49 2297.15,1026.41C2304.1,1024.34 2309.64,1021.59 2313.79,1018.17C2317.94,1014.74 2320.95,1010.7 2322.82,1006.03C2324.68,1001.36 2325.62,996.332 2325.62,990.939C2325.62,985.753 2324.68,980.826 2322.82,976.159C2320.95,971.491 2317.94,967.395 2313.79,963.868C2309.64,960.342 2304.1,957.593 2297.15,955.622C2290.2,953.652 2281.74,952.667 2271.79,952.667L2231.96,952.667L2231.96,1029.52ZM2231.96,1152.43L2209.56,1152.43L2209.56,932.13L2277.39,932.13C2299.79,932.13 2317.47,937.005 2330.44,946.755C2343.4,956.504 2349.89,971.232 2349.89,990.939C2349.89,1006.29 2345.06,1019.2 2335.42,1029.68C2325.77,1040.15 2311.82,1046.22 2293.57,1047.88L2357.04,1152.43L2329.66,1152.43L2269.3,1050.06L2231.96,1050.06L2231.96,1152.43Z" style="fill:rgb(118,118,118);fill-rule:nonzero;"/>
                    <path d="M2423.01,1074.02L2518.53,1074.02L2470.93,958.267L2423.01,1074.02ZM2390.34,1152.43L2364.2,1152.43L2460.03,932.13L2481.82,932.13L2577.65,1152.43L2551.51,1152.43L2527.24,1094.55L2414.61,1094.55L2390.34,1152.43Z" style="fill:rgb(118,118,118);fill-rule:nonzero;"/>
                    <rect x="2607.52" y="932.13" width="22.403" height="220.297" style="fill:rgb(118,118,118);fill-rule:nonzero;"/>
                    <path d="M2848.98,1118.82L2849.6,1118.82L2849.6,932.13L2872,932.13L2872,1152.43L2844,1152.43L2712.69,963.868L2712.07,963.868L2712.07,1152.43L2689.67,1152.43L2689.67,932.13L2717.67,932.13L2848.98,1118.82Z" style="fill:rgb(118,118,118);fill-rule:nonzero;"/>
                    <rect x="2931.75" y="932.13" width="22.403" height="220.297" style="fill:rgb(118,118,118);fill-rule:nonzero;"/>
                    <path d="M3173.2,1118.82L3173.82,1118.82L3173.82,932.13L3196.23,932.13L3196.23,1152.43L3168.22,1152.43L3036.92,963.868L3036.29,963.868L3036.29,1152.43L3013.89,1152.43L3013.89,932.13L3041.89,932.13L3173.2,1118.82Z" style="fill:rgb(118,118,118);fill-rule:nonzero;"/>
                    <path d="M3418.7,972.58C3411.24,964.698 3402.32,958.475 3391.94,953.911C3381.57,949.348 3369.54,947.066 3355.85,947.066C3341.74,947.066 3329.09,949.659 3317.89,954.845C3306.69,960.031 3297.2,966.98 3289.42,975.692C3281.64,984.404 3275.68,994.517 3271.53,1006.03C3267.38,1017.54 3265.3,1029.62 3265.3,1042.28C3265.3,1054.93 3267.38,1067.02 3271.53,1078.53C3275.68,1090.04 3281.64,1100.15 3289.42,1108.87C3297.2,1117.58 3306.69,1124.53 3317.89,1129.71C3329.09,1134.9 3341.74,1137.49 3355.85,1137.49C3367.26,1137.49 3378.2,1136.09 3388.68,1133.29C3399.15,1130.49 3408.54,1126.71 3416.84,1121.93L3416.84,1048.19L3364.25,1048.19L3364.25,1027.65L3439.24,1027.65L3439.24,1135.62C3426.79,1142.89 3413.15,1148.43 3398.32,1152.27C3383.49,1156.11 3369.33,1158.03 3355.85,1158.03C3339.46,1158.03 3324.27,1155.12 3310.26,1149.32C3296.26,1143.51 3284.13,1135.47 3273.86,1125.2C3263.59,1114.93 3255.55,1102.75 3249.75,1088.64C3243.94,1074.54 3241.03,1059.08 3241.03,1042.28C3241.03,1025.48 3243.94,1010.02 3249.75,995.917C3255.55,981.811 3263.59,969.624 3273.86,959.356C3284.13,949.088 3296.26,941.05 3310.26,935.242C3324.27,929.434 3339.46,926.53 3355.85,926.53C3373.48,926.53 3388.68,928.967 3401.43,933.842C3414.19,938.716 3425.55,946.132 3435.51,956.089L3418.7,972.58Z" style="fill:rgb(118,118,118);fill-rule:nonzero;"/>
                </g>
                <g transform="matrix(1,0,0,1,-1993.01,29.087)">
                    <path d="M3013.58,1355.3C3006.32,1359.45 3000.15,1363.34 2995.07,1366.97C2989.98,1370.6 2985.89,1374.44 2982.78,1378.48C2979.66,1382.53 2977.38,1386.83 2975.93,1391.39C2974.48,1395.96 2973.75,1401.04 2973.75,1406.64C2973.75,1412.86 2975,1418.57 2977.49,1423.76C2979.97,1428.94 2983.29,1433.35 2987.44,1436.98C2991.59,1440.61 2996.36,1443.46 3001.76,1445.54C3007.15,1447.61 3012.85,1448.65 3018.87,1448.65C3024.89,1448.65 3030.33,1447.82 3035.2,1446.16C3040.08,1444.5 3044.64,1442.22 3048.89,1439.31C3053.15,1436.41 3057.14,1432.99 3060.88,1429.04C3064.61,1425.1 3068.24,1420.85 3071.76,1416.29L3013.58,1355.3ZM3059.63,1287.16C3059.63,1278.44 3056.67,1271.44 3050.76,1266.15C3044.85,1260.87 3037.64,1258.22 3029.14,1258.22C3019.8,1258.22 3011.97,1261.12 3005.64,1266.93C2999.32,1272.74 2996.16,1280.62 2996.16,1290.58C2996.16,1294.31 2997.04,1298.2 2998.8,1302.25C3000.56,1306.29 3002.64,1310.08 3005.02,1313.61C3007.41,1317.13 3009.9,1320.4 3012.49,1323.41C3015.08,1326.41 3017.31,1328.64 3019.18,1330.1C3023.33,1327.61 3027.79,1325.07 3032.56,1322.47C3037.33,1319.88 3041.74,1316.92 3045.78,1313.61C3049.83,1310.29 3053.15,1306.45 3055.74,1302.09C3058.33,1297.74 3059.63,1292.76 3059.63,1287.16ZM3099.15,1412.55L3148.62,1463.58L3116.88,1463.58L3085.77,1431.22C3076.64,1443.05 3066.89,1452.33 3056.52,1459.07C3046.15,1465.81 3033.49,1469.18 3018.56,1469.18C3009.43,1469.18 3000.67,1467.78 2992.26,1464.98C2983.86,1462.18 2976.5,1458.09 2970.17,1452.69C2963.85,1447.3 2958.82,1440.71 2955.08,1432.93C2951.35,1425.15 2949.48,1416.29 2949.48,1406.33C2949.48,1398.24 2950.83,1390.88 2953.53,1384.24C2956.22,1377.6 2959.91,1371.64 2964.57,1366.35C2969.24,1361.06 2974.58,1356.34 2980.6,1352.19C2986.61,1348.04 2992.94,1344.41 2999.58,1341.3C2992.94,1334.25 2986.98,1326.41 2981.69,1317.81C2976.4,1309.2 2973.75,1299.81 2973.75,1289.65C2973.75,1281.35 2975.15,1273.99 2977.95,1267.56C2980.75,1261.12 2984.64,1255.68 2989.62,1251.22C2994.6,1246.76 3000.41,1243.39 3007.05,1241.11C3013.68,1238.83 3020.94,1237.68 3028.83,1237.68C3036.09,1237.68 3042.93,1238.77 3049.36,1240.95C3055.79,1243.13 3061.45,1246.29 3066.32,1250.44C3071.2,1254.59 3075.03,1259.72 3077.83,1265.84C3080.63,1271.96 3082.03,1279.07 3082.03,1287.16C3082.03,1294.42 3080.58,1300.9 3077.68,1306.61C3074.77,1312.31 3070.99,1317.5 3066.32,1322.16C3061.65,1326.83 3056.41,1330.98 3050.61,1334.61C3044.8,1338.24 3039.09,1341.51 3033.49,1344.41L3084.21,1396.68L3114.39,1344.41L3139.6,1344.41L3099.15,1412.55Z" style="fill:rgb(118,118,118);fill-rule:nonzero;"/>
                    <path d="M3451.37,1428.73C3447.64,1434.33 3443.02,1439.62 3437.53,1444.6C3432.03,1449.58 3425.76,1453.88 3418.7,1457.52C3411.65,1461.14 3404.03,1464 3395.83,1466.07C3387.64,1468.15 3378.98,1469.18 3369.85,1469.18C3353.46,1469.18 3338.27,1466.28 3324.27,1460.47C3310.26,1454.66 3298.13,1446.62 3287.86,1436.36C3277.59,1426.09 3269.56,1413.9 3263.75,1399.8C3257.94,1385.69 3255.03,1370.24 3255.03,1353.43C3255.03,1336.63 3257.94,1321.18 3263.75,1307.07C3269.56,1292.97 3277.59,1280.78 3287.86,1270.51C3298.13,1260.24 3310.26,1252.2 3324.27,1246.4C3338.27,1240.59 3353.46,1237.68 3369.85,1237.68C3383.54,1237.68 3397.23,1240.38 3410.92,1245.77C3424.61,1251.17 3436.34,1260.09 3446.08,1272.53L3426.48,1287.16C3424.2,1283.63 3421.09,1280.11 3417.15,1276.58C3413.2,1273.05 3408.69,1269.94 3403.61,1267.24C3398.53,1264.55 3393.08,1262.37 3387.28,1260.71C3381.47,1259.05 3375.66,1258.22 3369.85,1258.22C3355.75,1258.22 3343.09,1260.81 3331.89,1266C3320.69,1271.18 3311.2,1278.13 3303.42,1286.85C3295.64,1295.56 3289.68,1305.67 3285.53,1317.18C3281.38,1328.7 3279.31,1340.78 3279.31,1353.43C3279.31,1366.09 3281.38,1378.17 3285.53,1389.68C3289.68,1401.2 3295.64,1411.31 3303.42,1420.02C3311.2,1428.73 3320.69,1435.68 3331.89,1440.87C3343.09,1446.05 3355.75,1448.65 3369.85,1448.65C3375.66,1448.65 3381.42,1448.13 3387.12,1447.09C3392.83,1446.05 3398.43,1444.29 3403.92,1441.8C3409.42,1439.31 3414.61,1435.94 3419.48,1431.69C3424.36,1427.44 3428.87,1422.1 3433.02,1415.66L3451.37,1428.73Z" style="fill:rgb(118,118,118);fill-rule:nonzero;"/>
                    <path d="M3679.45,1353.43C3679.45,1340.78 3677.38,1328.7 3673.23,1317.18C3669.08,1305.67 3663.11,1295.56 3655.34,1286.85C3647.56,1278.13 3638.07,1271.18 3626.87,1266C3615.66,1260.81 3603.01,1258.22 3588.9,1258.22C3574.8,1258.22 3562.14,1260.81 3550.94,1266C3539.74,1271.18 3530.25,1278.13 3522.47,1286.85C3514.69,1295.56 3508.73,1305.67 3504.58,1317.18C3500.43,1328.7 3498.36,1340.78 3498.36,1353.43C3498.36,1366.09 3500.43,1378.17 3504.58,1389.68C3508.73,1401.2 3514.69,1411.31 3522.47,1420.02C3530.25,1428.73 3539.74,1435.68 3550.94,1440.87C3562.14,1446.05 3574.8,1448.65 3588.9,1448.65C3603.01,1448.65 3615.66,1446.05 3626.87,1440.87C3638.07,1435.68 3647.56,1428.73 3655.34,1420.02C3663.11,1411.31 3669.08,1401.2 3673.23,1389.68C3677.38,1378.17 3679.45,1366.09 3679.45,1353.43ZM3703.72,1353.43C3703.72,1370.24 3700.82,1385.69 3695.01,1399.8C3689.2,1413.9 3681.16,1426.09 3670.89,1436.36C3660.62,1446.62 3648.49,1454.66 3634.49,1460.47C3620.49,1466.28 3605.29,1469.18 3588.9,1469.18C3572.52,1469.18 3557.32,1466.28 3543.32,1460.47C3529.32,1454.66 3517.18,1446.62 3506.91,1436.36C3496.65,1426.09 3488.61,1413.9 3482.8,1399.8C3476.99,1385.69 3474.09,1370.24 3474.09,1353.43C3474.09,1336.63 3476.99,1321.18 3482.8,1307.07C3488.61,1292.97 3496.65,1280.78 3506.91,1270.51C3517.18,1260.24 3529.32,1252.2 3543.32,1246.4C3557.32,1240.59 3572.52,1237.68 3588.9,1237.68C3605.29,1237.68 3620.49,1240.59 3634.49,1246.4C3648.49,1252.2 3660.62,1260.24 3670.89,1270.51C3681.16,1280.78 3689.2,1292.97 3695.01,1307.07C3700.82,1321.18 3703.72,1336.63 3703.72,1353.43Z" style="fill:rgb(118,118,118);fill-rule:nonzero;"/>
                    <path d="M3907.84,1429.98L3908.46,1429.98L3908.46,1243.29L3930.86,1243.29L3930.86,1463.58L3902.86,1463.58L3771.55,1275.02L3770.93,1275.02L3770.93,1463.58L3748.53,1463.58L3748.53,1243.29L3776.53,1243.29L3907.84,1429.98Z" style="fill:rgb(118,118,118);fill-rule:nonzero;"/>
                    <path d="M4094.84,1279.69C4085.09,1265.38 4070.88,1258.22 4052.21,1258.22C4046.41,1258.22 4040.7,1259 4035.1,1260.55C4029.5,1262.11 4024.47,1264.5 4020.01,1267.71C4015.55,1270.93 4011.97,1275.07 4009.27,1280.16C4006.58,1285.24 4005.23,1291.2 4005.23,1298.05C4005.23,1308.01 4008.03,1315.73 4013.63,1321.23C4019.23,1326.73 4026.18,1331.24 4034.48,1334.76C4042.78,1338.29 4051.85,1341.45 4061.7,1344.26C4071.56,1347.06 4080.63,1350.79 4088.93,1355.46C4097.23,1360.12 4104.18,1366.3 4109.78,1373.97C4115.38,1381.64 4118.18,1392.12 4118.18,1405.4C4118.18,1415.35 4116.05,1424.33 4111.8,1432.31C4107.55,1440.3 4101.95,1446.99 4095,1452.38C4088.05,1457.77 4080.27,1461.92 4071.66,1464.83C4063.05,1467.73 4054.39,1469.18 4045.68,1469.18C4032.2,1469.18 4019.39,1466.64 4007.25,1461.56C3995.12,1456.48 3984.8,1448.13 3976.29,1436.51L3996.52,1421.89C4001.29,1429.98 4007.93,1436.46 4016.43,1441.34C4024.93,1446.21 4035,1448.65 4046.61,1448.65C4052.21,1448.65 4057.81,1447.77 4063.41,1446C4069.02,1444.24 4074.05,1441.65 4078.51,1438.22C4082.97,1434.8 4086.65,1430.6 4089.55,1425.62C4092.46,1420.64 4093.91,1414.94 4093.91,1408.51C4093.91,1400.83 4092.3,1394.45 4089.09,1389.37C4085.87,1384.29 4081.62,1380.04 4076.33,1376.62C4071.04,1373.19 4065.02,1370.34 4058.28,1368.06C4051.54,1365.78 4044.59,1363.49 4037.43,1361.21C4030.28,1358.93 4023.33,1356.34 4016.59,1353.43C4009.84,1350.53 4003.83,1346.85 3998.54,1342.39C3993.25,1337.93 3989,1332.33 3985.78,1325.59C3982.57,1318.84 3980.96,1310.39 3980.96,1300.23C3980.96,1289.65 3982.98,1280.42 3987.03,1272.53C3991.07,1264.65 3996.47,1258.12 4003.21,1252.93C4009.95,1247.75 4017.57,1243.91 4026.08,1241.42C4034.58,1238.93 4043.29,1237.68 4052.21,1237.68C4064.66,1237.68 4075.97,1239.65 4086.13,1243.6C4096.29,1247.54 4105.73,1254.49 4114.44,1264.44L4094.84,1279.69Z" style="fill:rgb(118,118,118);fill-rule:nonzero;"/>
                    <path d="M4321.05,1381.44C4321.05,1390.57 4319.96,1400.26 4317.78,1410.53C4315.61,1420.8 4311.51,1430.29 4305.49,1439C4299.48,1447.71 4291.23,1454.92 4280.76,1460.63C4270.28,1466.33 4256.85,1469.18 4240.46,1469.18C4223.87,1469.18 4210.38,1466.33 4200.01,1460.63C4189.64,1454.92 4181.45,1447.71 4175.43,1439C4169.41,1430.29 4165.32,1420.8 4163.14,1410.53C4160.96,1400.26 4159.87,1390.57 4159.87,1381.44L4159.87,1243.29L4182.28,1243.29L4182.28,1378.95C4182.28,1389.53 4183.31,1398.6 4185.39,1406.17C4187.46,1413.75 4190.21,1420.12 4193.63,1425.31C4197.06,1430.5 4200.89,1434.59 4205.15,1437.6C4209.4,1440.61 4213.65,1442.94 4217.9,1444.6C4222.15,1446.26 4226.25,1447.35 4230.19,1447.87C4234.14,1448.39 4237.56,1448.65 4240.46,1448.65C4243.16,1448.65 4246.53,1448.39 4250.57,1447.87C4254.62,1447.35 4258.77,1446.26 4263.02,1444.6C4267.27,1442.94 4271.52,1440.61 4275.78,1437.6C4280.03,1434.59 4283.87,1430.5 4287.29,1425.31C4290.71,1420.12 4293.46,1413.75 4295.54,1406.17C4297.61,1398.6 4298.65,1389.53 4298.65,1378.95L4298.65,1243.29L4321.05,1243.29L4321.05,1381.44Z" style="fill:rgb(118,118,118);fill-rule:nonzero;"/>
                    <path d="M4399.46,1443.05L4502.14,1443.05L4502.14,1463.58L4377.06,1463.58L4377.06,1243.29L4399.46,1243.29L4399.46,1443.05Z" style="fill:rgb(118,118,118);fill-rule:nonzero;"/>
                    <path d="M4574.64,1463.58L4552.24,1463.58L4552.24,1263.82L4478.49,1263.82L4478.49,1243.29L4648.39,1243.29L4648.39,1263.82L4574.64,1263.82L4574.64,1463.58Z" style="fill:rgb(118,118,118);fill-rule:nonzero;"/>
                    <path d="M4690.39,1385.17L4785.92,1385.17L4738.31,1269.42L4690.39,1385.17ZM4657.72,1463.58L4631.58,1463.58L4727.42,1243.29L4749.2,1243.29L4845.03,1463.58L4818.9,1463.58L4794.63,1405.71L4681.99,1405.71L4657.72,1463.58Z" style="fill:rgb(118,118,118);fill-rule:nonzero;"/>
                    <path d="M5034.22,1429.98L5034.84,1429.98L5034.84,1243.29L5057.24,1243.29L5057.24,1463.58L5029.24,1463.58L4897.93,1275.02L4897.31,1275.02L4897.31,1463.58L4874.91,1463.58L4874.91,1243.29L4902.91,1243.29L5034.22,1429.98Z" style="fill:rgb(118,118,118);fill-rule:nonzero;"/>
                    <path d="M5298.39,1428.73C5294.65,1434.33 5290.04,1439.62 5284.54,1444.6C5279.04,1449.58 5272.77,1453.88 5265.72,1457.52C5258.66,1461.14 5251.04,1464 5242.85,1466.07C5234.65,1468.15 5225.99,1469.18 5216.86,1469.18C5200.48,1469.18 5185.28,1466.28 5171.28,1460.47C5157.28,1454.66 5145.14,1446.62 5134.88,1436.36C5124.61,1426.09 5116.57,1413.9 5110.76,1399.8C5104.95,1385.69 5102.05,1370.24 5102.05,1353.43C5102.05,1336.63 5104.95,1321.18 5110.76,1307.07C5116.57,1292.97 5124.61,1280.78 5134.88,1270.51C5145.14,1260.24 5157.28,1252.2 5171.28,1246.4C5185.28,1240.59 5200.48,1237.68 5216.86,1237.68C5230.56,1237.68 5244.25,1240.38 5257.94,1245.77C5271.63,1251.17 5283.35,1260.09 5293.1,1272.53L5273.49,1287.16C5271.21,1283.63 5268.1,1280.11 5264.16,1276.58C5260.22,1273.05 5255.71,1269.94 5250.62,1267.24C5245.54,1264.55 5240.1,1262.37 5234.29,1260.71C5228.48,1259.05 5222.67,1258.22 5216.86,1258.22C5202.76,1258.22 5190.11,1260.81 5178.9,1266C5167.7,1271.18 5158.21,1278.13 5150.43,1286.85C5142.65,1295.56 5136.69,1305.67 5132.54,1317.18C5128.39,1328.7 5126.32,1340.78 5126.32,1353.43C5126.32,1366.09 5128.39,1378.17 5132.54,1389.68C5136.69,1401.2 5142.65,1411.31 5150.43,1420.02C5158.21,1428.73 5167.7,1435.68 5178.9,1440.87C5190.11,1446.05 5202.76,1448.65 5216.86,1448.65C5222.67,1448.65 5228.43,1448.13 5234.13,1447.09C5239.84,1446.05 5245.44,1444.29 5250.94,1441.8C5256.43,1439.31 5261.62,1435.94 5266.49,1431.69C5271.37,1427.44 5275.88,1422.1 5280.03,1415.66L5298.39,1428.73Z" style="fill:rgb(118,118,118);fill-rule:nonzero;"/>
                    <path d="M5406.67,1463.58L5384.27,1463.58L5384.27,1368.68L5301.81,1243.29L5329.81,1243.29L5395.47,1347.21L5461.12,1243.29L5489.12,1243.29L5406.67,1368.68L5406.67,1463.58Z" style="fill:rgb(118,118,118);fill-rule:nonzero;"/>
                </g>
            </g>
        </g>
    </g>
</svg>
