<?xml version="1.0" encoding="utf-8"?>
<svg viewBox="-49.5232 103.2176 1396.3044 223.9388" xmlns="http://www.w3.org/2000/svg">
    <defs>
        <style>@import url(https://fonts.googleapis.com/css2?family=AR+One+Sans%3Aital%2Cwght%400%2C400..700&amp;display=swap);</style>
    </defs>
    <g transform="matrix(1, 0, 0, 1, 0, 5.684341886080802e-14)">
        <g style="" transform="matrix(0.674556, 0, 0, 0.674556, 164.094223, 40.216965)">
            <g transform="matrix(4.16667, 0, 0, 4.16667, -549.529724, -776.609131)" style="opacity: 0.7;">
                <g style="" transform="matrix(0.355505, 0, 0, 0.355505, 29.829636, 163.742371)">
                    <path d="M182.77,182.619L182.77,160.757L74.376,160.757L74.376,286.236L96.239,286.236L96.239,233.509L177.075,233.509L177.075,211.647L96.239,211.647L96.239,182.619L182.77,182.619Z" style="fill-rule: nonzero; fill: rgb(5, 5, 5);"/>
                    <path d="M232.628,181.259C232.628,187.093 230.79,191.849 227.118,195.521C223.44,199.198 218.69,201.031 212.856,201.031C207.234,201.031 202.535,199.198 198.757,195.521C194.973,191.849 193.084,187.093 193.084,181.259C193.084,175.643 194.973,170.998 198.757,167.322C202.535,163.65 207.234,161.812 212.856,161.812C218.69,161.812 223.44,163.65 227.118,167.322C230.79,170.998 232.628,175.643 232.628,181.259Z" style="fill:rgb(223,171,42);fill-rule:nonzero;"/>
                    <path d="M419.28,285.947L387.232,285.947L325.149,234.121C320.875,230.458 318.74,227.102 318.74,224.049C318.74,221.119 320.875,217.823 325.149,214.16L387.232,160.869L419.28,160.869L344.745,224.599L419.28,285.947ZM314.711,285.947L292.919,285.947L292.919,160.869L314.711,160.869L314.711,285.947Z" style="fill-rule: nonzero; fill: rgb(5, 5, 5);"/>
                    <path d="M 283.476 180.666 C 283.476 186.5 281.638 191.256 277.966 194.928 C 274.288 198.605 269.538 200.438 263.704 200.438 C 258.082 200.438 253.383 198.605 249.605 194.928 C 245.822 191.256 243.932 186.5 243.932 180.666 C 243.932 175.05 245.822 170.405 249.605 166.729 C 253.383 163.057 258.082 161.219 263.704 161.219 C 269.538 161.219 274.288 163.057 277.966 166.729 C 281.638 170.405 283.476 175.05 283.476 180.666 Z" style="fill:rgb(223,171,42);fill-rule:nonzero;"/>
                    <path d="M94.831,325.411C95.082,325.411 95.3,325.51 95.485,325.709L97.33,327.712C96.166,329.113 94.738,330.194 93.046,330.954C91.353,331.715 89.33,332.096 86.976,332.096C84.886,332.096 82.999,331.736 81.313,331.014C79.627,330.294 78.189,329.288 76.999,327.999C75.809,326.711 74.893,325.172 74.252,323.387C73.61,321.603 73.289,319.638 73.289,317.496C73.289,315.354 73.63,313.387 74.311,311.595C74.992,309.804 75.95,308.263 77.187,306.974C78.423,305.684 79.905,304.683 81.63,303.969C83.356,303.254 85.257,302.897 87.333,302.897C89.396,302.897 91.217,303.232 92.798,303.899C94.378,304.567 95.75,305.456 96.914,306.567L95.386,308.729C95.28,308.875 95.155,309 95.009,309.106C94.864,309.212 94.665,309.265 94.414,309.265C94.15,309.265 93.849,309.143 93.512,308.898C93.175,308.653 92.745,308.382 92.223,308.084C91.7,307.787 91.045,307.516 90.259,307.271C89.472,307.027 88.49,306.904 87.313,306.904C85.951,306.904 84.701,307.142 83.564,307.618C82.427,308.094 81.448,308.789 80.628,309.701C79.809,310.613 79.171,311.724 78.715,313.034C78.258,314.343 78.03,315.83 78.03,317.496C78.03,319.176 78.268,320.674 78.744,321.989C79.22,323.305 79.875,324.416 80.708,325.321C81.541,326.227 82.519,326.918 83.644,327.394C84.767,327.87 85.978,328.108 87.273,328.108C88.067,328.108 88.778,328.065 89.406,327.979C90.034,327.894 90.612,327.754 91.141,327.563C91.67,327.371 92.169,327.13 92.639,326.839C93.108,326.549 93.574,326.191 94.037,325.768C94.302,325.53 94.566,325.411 94.831,325.411Z" style="fill-rule: nonzero; fill: rgb(5, 5, 5);"/>
                    <path d="M133.451,316.901C134.508,316.901 135.434,316.773 136.227,316.515C137.021,316.256 137.682,315.897 138.211,315.434C138.74,314.971 139.136,314.419 139.401,313.777C139.665,313.136 139.798,312.425 139.798,311.645C139.798,310.085 139.282,308.894 138.251,308.075C137.219,307.255 135.659,306.845 133.57,306.845L129.8,306.845L129.8,316.901L133.451,316.901ZM146.899,331.778L142.753,331.778C141.933,331.778 141.338,331.46 140.968,330.826L134.303,321.206C134.078,320.875 133.834,320.638 133.57,320.492C133.305,320.346 132.908,320.273 132.38,320.273L129.8,320.273L129.8,331.778L125.159,331.778L125.159,303.215L133.57,303.215C135.447,303.215 137.064,303.407 138.419,303.79C139.775,304.174 140.889,304.719 141.762,305.427C142.634,306.134 143.279,306.984 143.696,307.975C144.112,308.967 144.32,310.072 144.32,311.288C144.32,312.28 144.172,313.205 143.874,314.065C143.577,314.924 143.146,315.705 142.585,316.405C142.023,317.107 141.331,317.714 140.512,318.23C139.692,318.746 138.76,319.149 137.715,319.44C138.284,319.784 138.773,320.267 139.183,320.888L146.899,331.778Z" style="fill-rule: nonzero; fill: rgb(5, 5, 5);"/>
                    <path d="M 191.984 328.028 L 191.965 331.778 L 174.153 331.778 L 174.153 303.215 L 191.965 303.215 L 191.965 306.964 L 178.814 306.964 L 178.814 315.572 L 189.327 315.572 L 189.327 319.202 L 178.814 319.202 L 178.814 328.028 L 191.984 328.028 Z" style="fill-rule: nonzero; fill: rgb(5, 5, 5);"/>
                    <path d="M 235.919 321.067 L 231.992 310.633 C 231.674 309.827 231.35 308.802 231.02 307.559 C 230.874 308.18 230.716 308.752 230.544 309.274 C 230.372 309.797 230.213 310.256 230.068 310.653 L 226.141 321.067 L 235.919 321.067 Z M 244.706 331.778 L 241.116 331.778 C 240.706 331.778 240.375 331.675 240.125 331.471 C 239.873 331.265 239.681 331.011 239.549 330.706 L 237.169 324.399 L 224.871 324.399 L 222.491 330.706 C 222.385 330.971 222.2 331.215 221.935 331.441 C 221.671 331.666 221.34 331.778 220.944 331.778 L 217.353 331.778 L 228.679 303.215 L 233.381 303.215 L 244.706 331.778 Z" style="fill-rule: nonzero; fill: rgb(5, 5, 5);"/>
                    <path d="M 288.701 307.083 L 279.795 307.083 L 279.795 331.778 L 275.174 331.778 L 275.174 307.083 L 266.248 307.083 L 266.248 303.215 L 288.701 303.215 L 288.701 307.083 Z" style="fill-rule: nonzero; fill: rgb(5, 5, 5);"/>
                    <rect x="316.471" y="303.215" width="4.661" height="28.563" style="fill-rule: nonzero; fill: rgb(5, 5, 5);"/>
                    <path d="M 375.619 303.215 L 364.035 331.778 L 359.85 331.778 L 348.266 303.215 L 351.975 303.215 C 352.385 303.215 352.716 303.317 352.968 303.522 C 353.219 303.727 353.411 303.982 353.543 304.286 L 360.902 322.911 C 361.299 323.956 361.662 325.159 361.992 326.521 C 362.138 325.847 362.293 325.205 362.458 324.597 C 362.624 323.989 362.806 323.427 363.004 322.911 L 370.343 304.286 C 370.449 304.021 370.634 303.777 370.898 303.552 C 371.163 303.328 371.494 303.215 371.891 303.215 L 375.619 303.215 Z" style="fill-rule: nonzero; fill: rgb(5, 5, 5);"/>
                    <path d="M 420.587 328.028 L 420.566 331.778 L 402.754 331.778 L 402.754 303.215 L 420.566 303.215 L 420.566 306.964 L 407.416 306.964 L 407.416 315.572 L 417.928 315.572 L 417.928 319.202 L 407.416 319.202 L 407.416 328.028 L 420.587 328.028 Z" style="fill-rule: nonzero; fill: rgb(5, 5, 5);"/>
                </g>
                <rect x="193.104" y="208.801" width="2.829" height="79.675" style="stroke: rgb(0, 0, 0); fill: rgb(5, 5, 5);"/>
            </g>
        </g>
        <text style="fill: rgb(51, 51, 51); font-family: 'AR One Sans'; font-size: 150px;" x="402.816" y="269.938">COMMUNITY</text>
    </g>
</svg>