<?xml version="1.0" encoding="UTF-8"?>
<svg width="696px" height="194px" viewBox="0 0 696 194" version="1.1" xmlns="http://www.w3.org/2000/svg" xmlns:xlink="http://www.w3.org/1999/xlink">
    <title>Untitled 24</title>
    <g id="Page-1" stroke="none" stroke-width="1" fill="none" fill-rule="evenodd">
        <g id="Group">
            <path d="M248.596,191.048 C249.74,191.048 250.741,190.666667 251.599,189.904 C252.457,189.141333 252.886,188.188 252.886,187.044 L252.886,187.044 L252.886,110.11 C252.886,101.53 255.841333,94.2846667 261.752,88.374 C267.662667,82.4633333 274.908,79.508 283.488,79.508 L283.488,79.508 L290.352,79.508 C297.406667,79.508 303.412667,81.9866667 308.37,86.944 C313.327333,91.9013333 315.806,97.9073333 315.806,104.962 L315.806,104.962 L315.806,187.616 C315.806,188.569333 316.139667,189.379667 316.807,190.047 C317.474333,190.714333 318.284667,191.048 319.238,191.048 L319.238,191.048 L341.26,191.048 C342.213333,191.048 343.023667,190.714333 343.691,190.047 C344.358333,189.379667 344.692,188.569333 344.692,187.616 L344.692,187.616 L344.692,102.674 C344.692,88.374 339.591667,76.1236667 329.391,65.923 C319.190333,55.7223333 306.94,50.622 292.64,50.622 L292.64,50.622 L288.922,50.622 C275.194,50.622 263.182,55.3886667 252.886,64.922 L252.886,64.922 L252.886,4.29 C252.886,3.146 252.457,2.145 251.599,1.287 C250.741,0.429 249.74,0 248.596,0 L248.596,0 L228.29,0 C227.146,0 226.145,0.429 225.287,1.287 C224.429,2.145 224,3.146 224,4.29 L224,4.29 L224,187.044 C224,188.188 224.429,189.141333 225.287,189.904 C226.145,190.666667 227.146,191.048 228.29,191.048 L228.29,191.048 L248.596,191.048 Z M383.445,28.6 C387.353667,28.6 390.642667,27.2653333 393.312,24.596 C396.172,21.736 397.602,18.3516667 397.602,14.443 C397.602,10.5343333 396.219667,7.19766667 393.455,4.433 C390.690333,1.66833333 387.353667,0.286 383.445,0.286 C379.536333,0.286 376.199667,1.66833333 373.435,4.433 C370.670333,7.19766667 369.288,10.5343333 369.288,14.443 C369.288,18.3516667 370.670333,21.6883333 373.435,24.453 C376.199667,27.2176667 379.536333,28.6 383.445,28.6 Z M393.598,191.048 C394.742,191.048 395.743,190.666667 396.601,189.904 C397.459,189.141333 397.888,188.092667 397.888,186.758 L397.888,186.758 L397.888,56.914 C397.888,55.77 397.459,54.769 396.601,53.911 C395.743,53.053 394.742,52.624 393.598,52.624 L393.598,52.624 L373.292,52.624 C372.148,52.624 371.147,53.053 370.289,53.911 C369.431,54.769 369.002,55.77 369.002,56.914 L369.002,56.914 L369.002,186.758 C369.002,188.092667 369.431,189.141333 370.289,189.904 C371.147,190.666667 372.148,191.048 373.292,191.048 L373.292,191.048 L393.598,191.048 Z M493.412,191.048 C495.128,191.048 496.272,190.285333 496.844,188.76 L496.844,188.76 L548.038,56.342 C548.419333,55.3886667 548.324,54.5306667 547.752,53.768 C547.18,53.0053333 546.512667,52.624 545.75,52.624 L545.75,52.624 L521.154,52.624 C519.438,52.624 518.294,53.3866667 517.722,54.912 L517.722,54.912 L480.542,151.294 L443.362,54.912 C442.79,53.3866667 441.646,52.624 439.93,52.624 L439.93,52.624 L415.334,52.624 C414.380667,52.624 413.665667,53.0053333 413.189,53.768 C412.712333,54.5306667 412.664667,55.3886667 413.046,56.342 L413.046,56.342 L464.24,188.76 C464.812,190.285333 465.956,191.048 467.672,191.048 L467.672,191.048 L493.412,191.048 Z M625.258,193.05 C639.176667,193.05 651.808333,189.284333 663.153,181.753 C674.497667,174.221667 682.934667,164.354667 688.464,152.152 C689.036,150.626667 688.559333,149.578 687.034,149.006 L687.034,149.006 L664.44,139.568 C663.105333,138.996 662.152,139.377333 661.58,140.712 C658.148,147.766667 653.095333,153.486667 646.422,157.872 C639.748667,162.257333 632.312667,164.45 624.114,164.45 L624.114,164.45 L622.112,164.45 C611.816,164.45 602.759333,160.970333 594.942,154.011 C587.124667,147.051667 582.548667,138.519333 581.214,128.414 L581.214,128.414 L695.328,128.414 L695.328,124.982 C695.328,112.016667 692.420333,99.9093333 686.605,88.66 C680.789667,77.4106667 672.495667,68.2586667 661.723,61.204 C650.950333,54.1493333 638.795333,50.622 625.258,50.622 L625.258,50.622 L620.968,50.622 C601.901333,50.622 585.647,57.3906667 572.205,70.928 C558.763,84.4653333 552.042,100.767333 552.042,119.834 L552.042,119.834 L552.042,124.124 C552.042,143.190667 558.763,159.445 572.205,172.887 C585.647,186.329 601.901333,193.05 620.968,193.05 L620.968,193.05 L625.258,193.05 Z M661.008,102.102 L585.504,102.102 C588.936,95.238 593.941,89.7563333 600.519,85.657 C607.097,81.5576667 614.294667,79.508 622.112,79.508 L622.112,79.508 L624.114,79.508 C632.122,79.508 639.367333,81.5576667 645.85,85.657 C652.332667,89.7563333 657.385333,95.238 661.008,102.102 L661.008,102.102 Z" id="bhive" fill="#000000" fill-rule="nonzero"></path>
            <path d="M179.21,48 L206.073,63.584 L206.073,94.752 L179.21,110.336 L152.347,94.752 L152.347,63.584 L179.21,48 L179.21,48 Z M179.21,130.752 L206.073,146.336 L206.073,177.504 L179.21,193.088 L152.347,177.504 L152.347,146.336 L179.21,130.752 Z" id="Shape" fill="#F2AF0D"></path>
            <path d="M65.208,193.05 C84.2746667,193.05 100.576667,186.329 114.114,172.887 C127.651333,159.445 134.42,143.190667 134.42,124.124 L134.42,124.124 L134.42,119.834 C134.42,100.767333 127.699,84.799 114.257,71.929 C100.815,59.059 84.4653333,52.624 65.208,52.624 L65.208,52.624 L28.886,52.624 L28.886,4.29 C28.886,3.146 28.457,2.145 27.599,1.287 C26.741,0.429 25.74,0 24.596,0 L24.596,0 L4.29,0 C3.146,0 2.145,0.429 1.287,1.287 C0.429,2.145 -1.42108547e-14,3.146 -1.42108547e-14,4.29 L-1.42108547e-14,4.29 L-1.42108547e-14,187.044 C-1.42108547e-14,188.188 0.429,189.141333 1.287,189.904 C2.145,190.666667 3.146,191.048 4.29,191.048 L4.29,191.048 L24.596,191.048 C25.74,191.048 26.741,190.666667 27.599,189.904 C28.457,189.141333 28.886,188.188 28.886,187.044 L28.886,187.044 L28.886,180.18 L30.03,181.324 C30.7926667,182.277333 32.1273333,183.373667 34.034,184.613 C35.9406667,185.852333 38.2286667,187.139333 40.898,188.474 C43.5673333,189.808667 47.047,190.905 51.337,191.763 C55.627,192.621 60.2506667,193.05 65.208,193.05 Z M64.064,164.45 C54.34,164.45 46.046,160.970333 39.182,154.011 C32.318,147.051667 28.886,138.71 28.886,128.986 L28.886,128.986 L28.886,79.508 L64.064,79.508 C75.504,79.508 85.2756667,83.5596667 93.379,91.663 C101.482333,99.7663333 105.534,109.538 105.534,120.978 L105.534,120.978 L105.534,122.98 C105.534,134.42 101.482333,144.191667 93.379,152.295 C85.2756667,160.398333 75.504,164.45 64.064,164.45 Z" id="b" fill="#000000" fill-rule="nonzero"></path>
        </g>
    </g>
</svg>