<?xml version="1.0" encoding="UTF-8"?>
<svg width="958.44px" height="249.39px" viewBox="0 0 958.44 249.39" version="1.1" xmlns="http://www.w3.org/2000/svg" xmlns:xlink="http://www.w3.org/1999/xlink">
    <title>Group 4</title>
    <g id="Page-1" stroke="none" stroke-width="1" fill="none" fill-rule="evenodd">
        <g id="t" transform="translate(-99.67, -1445.5)">
            <g id="Group-2" transform="translate(99.67, 1445.5)">
                <polygon id="Path" fill="#F2AF0D" points="247.628601 68.772 280.253202 87.6984706 280.253202 125.551412 247.628601 144.477882 215.004 125.551412 215.004 87.6984706 247.628601 68.772"></polygon>
                <polygon id="Path" fill="#F2AF0D" points="247.628601 168.066118 280.253202 186.992588 280.253202 224.845529 247.628601 243.772 215.004 224.845529 215.004 186.992588 247.628601 168.066118"></polygon>
                <g id="b:hive" fill="#EFEFEF" fill-opacity="0.85" fill-rule="nonzero">
                    <path d="M-5.68434189e-14,0 L-5.68434189e-14,244.5 L56.398,244.5 L57.702,223.31 C69.112,240.914 86.716,249.39 107.58,249.39 C158.762,249.39 189.08,202.446 189.08,155.828 C189.08,110.84 160.718,64.222 112.144,64.222 C91.606,64.222 73.35,73.024 60.962,89.324 L60.962,0 L-5.68434189e-14,0 Z M60.636,157.132 C60.636,137.572 73.024,119.642 93.562,119.642 C114.752,119.642 127.14,137.572 127.14,157.132 C127.14,177.018 114.426,194.622 93.562,194.622 C72.698,194.622 60.636,176.366 60.636,157.132 Z" id="Shape"></path>
                    <path d="M311.004,244.5 L371.966,244.5 L371.966,146.7 C371.966,131.704 381.746,119.316 397.068,119.316 C412.716,119.316 418.91,133.008 418.91,146.7 L418.91,244.5 L479.872,244.5 L479.872,137.572 C479.872,98.778 460.964,64.222 419.236,64.222 C400.328,64.222 382.398,72.046 371.966,88.02 L371.966,0 L311.004,0 L311.004,244.5 Z" id="Path"></path>
                    <polygon id="Shape" points="509.212 244.5 570.174 244.5 570.174 69.112 509.212 69.112"></polygon>
                    <polygon id="Path" points="586.474 69.112 650.37 244.5 711.984 244.5 775.88 69.112 712.31 69.112 681.992 181.908 652.326 69.112"></polygon>
                    <path d="M779.14,156.154 C779.14,210.27 816.304,249.39 869.768,249.39 C904.976,249.39 941.488,232.112 955.18,198.208 L899.434,185.82 C892.588,195.926 883.134,200.816 871.724,200.816 C854.12,200.816 844.666,188.102 841.406,172.128 L958.44,172.128 L958.44,161.044 C958.44,104.646 925.514,64.222 868.79,64.222 C815.978,64.222 779.14,105.298 779.14,156.154 Z M868.79,107.58 C885.742,107.58 892.914,120.62 895.522,135.616 L840.754,135.616 C843.362,120.294 851.838,107.58 868.79,107.58 Z" id="Shape"></path>
                </g>
            </g>
        </g>
    </g>
</svg>