<?xml version="1.0" encoding="UTF-8"?>
<svg width="290px" height="73px" viewBox="0 0 290 73" version="1.1" xmlns="http://www.w3.org/2000/svg" xmlns:xlink="http://www.w3.org/1999/xlink">
    <title>Group</title>
    <defs>
        <rect id="path-1" x="0" y="0" width="290" height="73" rx="12"></rect>
    </defs>
    <g id="Page-1" stroke="none" stroke-width="1" fill="none" fill-rule="evenodd">
        <g id="Group">
            <g id="Path-68">
                <mask id="mask-2" fill="white">
                    <use xlink:href="#path-1"></use>
                </mask>
                <use id="Mask" fill="#2D2D2D" fill-rule="nonzero" xlink:href="#path-1"></use>
                <path d="M301.833002,-136.777 L97.8330018,153.727412 L301.833002,257.223 L301.833002,74.1493715 L301.833002,-136.777 Z" stroke="#2B2B2B" stroke-width="0.25" fill="#1F1F1F" fill-rule="nonzero" mask="url(#mask-2)"></path>
            </g>
            <path d="M30.7628099,42 C31.5372189,42 32.2009981,41.7334826 32.7541474,41.2004478 C33.3072967,40.6674131 33.5989572,40.0187198 33.629129,39.2543681 C33.6794153,37.9972106 33.2117527,37.1473721 32.2261412,36.7048527 C32.1356259,36.6646236 32.12054,36.6093087 32.1808836,36.5389079 C32.5429449,36.0762739 32.7491187,35.5683823 32.799405,35.015233 C32.8496913,34.4620837 32.7642046,33.961735 32.5429449,33.514187 C32.3216852,33.0666389 31.9671668,32.6894917 31.4793897,32.3827452 C30.9916126,32.0759988 30.4309203,31.9226256 29.797313,31.9226256 L29.797313,31.9226256 L25.9805828,31.9226256 C25.9202393,31.9226256 25.8674387,31.9452544 25.822181,31.9905121 C25.7769233,32.0357698 25.7542945,32.0885704 25.7542945,32.1489139 L25.7542945,32.1489139 L25.7542945,41.7737117 C25.7542945,41.8340552 25.7769233,41.8868558 25.822181,41.9321135 C25.8674387,41.9773712 25.9202393,42 25.9805828,42 L25.9805828,42 L30.7628099,42 Z M29.6917117,36.2070183 L27.2779694,36.2070183 L27.2779694,33.4463005 L29.7822271,33.4463005 C30.1342312,33.4463005 30.4309203,33.5669876 30.6722946,33.8083618 C30.9136688,34.0497361 31.0343559,34.3464252 31.0343559,34.6984293 L31.0343559,34.6984293 L31.0343559,34.8342023 C31.0343559,35.206321 30.9036115,35.525639 30.6421228,35.7921563 C30.380634,36.0586737 30.0638303,36.1969611 29.6917117,36.2070183 L29.6917117,36.2070183 Z M30.883497,40.4763251 L27.2779694,40.4763251 L27.2779694,37.7156073 L30.883497,37.7156073 C31.2254439,37.7156073 31.5171044,37.8388087 31.7584786,38.0852116 C31.9998529,38.3316145 32.12054,38.6257893 32.12054,38.9677361 L32.12054,38.9677361 L32.12054,39.2392822 C32.12054,39.581229 31.9998529,39.8728895 31.7584786,40.1142638 C31.5171044,40.355638 31.2254439,40.4763251 30.883497,40.4763251 L30.883497,40.4763251 Z M41.3229328,42.1056012 C42.4191741,42.1056012 43.3544993,41.7183967 44.1289083,40.9439877 C44.9033173,40.1695787 45.2905218,39.2342535 45.2905218,38.1380122 L45.2905218,38.1380122 L45.2905218,32.1489139 C45.2905218,32.0885704 45.267893,32.0357698 45.2226353,31.9905121 C45.1773776,31.9452544 45.124577,31.9226256 45.0642335,31.9226256 L45.0642335,31.9226256 L43.9931353,31.9226256 C43.9327917,31.9226256 43.8799911,31.9452544 43.8347334,31.9905121 C43.7894758,32.0357698 43.7668469,32.0885704 43.7668469,32.1489139 L43.7668469,32.1489139 L43.7668469,38.1078404 C43.7668469,38.7917341 43.5254727,39.3750552 43.0427242,39.8578036 C42.5599757,40.3405521 41.9766547,40.5819264 41.292761,40.5819264 L41.292761,40.5819264 L41.1720739,40.5819264 C40.4881802,40.5819264 39.9048591,40.3405521 39.4221107,39.8578036 C38.9393622,39.3750552 38.697988,38.7917341 38.697988,38.1078404 L38.697988,38.1078404 L38.697988,32.1036563 C38.697988,32.05337 38.6778734,32.0106266 38.6376444,31.9754262 C38.5974154,31.9402258 38.5571863,31.9226256 38.5169573,31.9226256 L38.5169573,31.9226256 L37.3553438,31.9226256 C37.3050575,31.9226256 37.2623141,31.9402258 37.2271137,31.9754262 C37.1919133,32.0106266 37.1743131,32.05337 37.1743131,32.1036563 L37.1743131,32.1036563 L37.1743131,38.1380122 C37.1743131,39.2342535 37.5615176,40.1695787 38.3359266,40.9439877 C39.1103356,41.7183967 40.0456608,42.1056012 41.1419021,42.1056012 L41.1419021,42.1056012 L41.3229328,42.1056012 Z M50.5554973,42 C50.6158409,42 50.6686415,41.9773712 50.7138992,41.9321135 C50.7591569,41.8868558 50.7817857,41.8340552 50.7817857,41.7737117 L50.7817857,41.7737117 L50.7817857,32.1489139 C50.7817857,32.0885704 50.7591569,32.0357698 50.7138992,31.9905121 C50.6686415,31.9452544 50.6158409,31.9226256 50.5554973,31.9226256 L50.5554973,31.9226256 L49.4843992,31.9226256 C49.4240556,31.9226256 49.371255,31.9452544 49.3259973,31.9905121 C49.2807397,32.0357698 49.2581108,32.0885704 49.2581108,32.1489139 L49.2581108,32.1489139 L49.2581108,41.7737117 C49.2581108,41.8340552 49.2807397,41.8868558 49.3259973,41.9321135 C49.371255,41.9773712 49.4240556,42 49.4843992,42 L49.4843992,42 L50.5554973,42 Z M61.0854484,42 C61.145792,42 61.1985926,41.9773712 61.2438503,41.9321135 C61.289108,41.8868558 61.3117368,41.8340552 61.3117368,41.7737117 L61.3117368,41.7737117 L61.3117368,40.7026135 C61.3117368,40.6422699 61.289108,40.5894693 61.2438503,40.5442116 C61.1985926,40.498954 61.145792,40.4763251 61.0854484,40.4763251 L61.0854484,40.4763251 L56.4239085,40.4763251 L56.4239085,32.1489139 C56.4239085,32.0885704 56.4012797,32.0357698 56.356022,31.9905121 C56.3107643,31.9452544 56.2579637,31.9226256 56.1976201,31.9226256 L56.1976201,31.9226256 L55.126522,31.9226256 C55.0661784,31.9226256 55.0133778,31.9452544 54.9681201,31.9905121 C54.9228625,32.0357698 54.9002336,32.0885704 54.9002336,32.1489139 L54.9002336,32.1489139 L54.9002336,41.7737117 C54.9002336,41.8340552 54.9228625,41.8868558 54.9681201,41.9321135 C55.0133778,41.9773712 55.0661784,42 55.126522,42 L55.126522,42 L61.0854484,42 Z M66.62197,42 C66.6823136,42 66.7351142,41.9773712 66.7803718,41.9321135 C66.8256295,41.8868558 66.8482584,41.8340552 66.8482584,41.7737117 L66.8482584,41.7737117 L66.8482584,33.4463005 L69.6693197,33.4463005 C69.7296633,33.4463005 69.7799496,33.4236716 69.8201786,33.378414 C69.8604077,33.3331563 69.8805222,33.2803557 69.8805222,33.2200121 L69.8805222,33.2200121 L69.8805222,32.1489139 C69.8805222,32.0885704 69.8604077,32.0357698 69.8201786,31.9905121 C69.7799496,31.9452544 69.7296633,31.9226256 69.6693197,31.9226256 L69.6693197,31.9226256 L62.518608,31.9226256 C62.4582644,31.9226256 62.4054638,31.9452544 62.3602061,31.9905121 C62.3149485,32.0357698 62.2923196,32.0885704 62.2923196,32.1489139 L62.2923196,32.1489139 L62.2923196,33.2200121 C62.2923196,33.2803557 62.3149485,33.3331563 62.3602061,33.378414 C62.4054638,33.4236716 62.4582644,33.4463005 62.518608,33.4463005 L62.518608,33.4463005 L65.3245835,33.4463005 L65.3245835,41.7737117 C65.3245835,41.8340552 65.3472123,41.8868558 65.39247,41.9321135 C65.4377277,41.9773712 65.4905283,42 65.5508718,42 L65.5508718,42 L66.62197,42 Z M85.7207065,42.1056012 C86.6258599,42.1056012 87.4631268,41.8818272 88.2325072,41.4342791 C89.0018875,40.9867311 89.6078375,40.3807812 90.0503569,39.6164294 C90.4928763,38.8520777 90.714136,38.0173251 90.714136,37.1121717 L90.714136,37.1121717 L90.714136,36.7199386 C90.714136,35.8147852 90.4928763,34.9800326 90.0503569,34.2156809 C89.6078375,33.4513291 89.0018875,32.8478935 88.2325072,32.4053741 C87.4631268,31.9628546 86.6258599,31.7415949 85.7207065,31.7415949 L85.7207065,31.7415949 L85.4491605,31.7415949 C84.5440071,31.7415949 83.7067402,31.9628546 82.9373598,32.4053741 C82.1679795,32.8478935 81.5620296,33.4513291 81.1195101,34.2156809 C80.6769907,34.9800326 80.455731,35.8147852 80.455731,36.7199386 L80.455731,36.7199386 L80.455731,37.1121717 C80.455731,38.0173251 80.6769907,38.8520777 81.1195101,39.6164294 C81.5620296,40.3807812 82.1679795,40.9867311 82.9373598,41.4342791 C83.7067402,41.8818272 84.5440071,42.1056012 85.4491605,42.1056012 L85.4491605,42.1056012 L85.7207065,42.1056012 Z M85.6452771,40.5819264 L85.5245899,40.5819264 C84.5389785,40.5819264 83.7017116,40.2374652 83.0127893,39.5485429 C82.323867,38.8596206 81.9794058,38.0223537 81.9794058,37.0367423 L81.9794058,37.0367423 L81.9794058,36.795368 C81.9794058,35.8198138 82.323867,34.9850612 83.0127893,34.2911103 C83.7017116,33.5971594 84.5389785,33.2501839 85.5245899,33.2501839 L85.5245899,33.2501839 L85.6452771,33.2501839 C86.6308885,33.2501839 87.4681554,33.5971594 88.1570777,34.2911103 C88.846,34.9850612 89.1904612,35.8198138 89.1904612,36.795368 L89.1904612,36.795368 L89.1904612,37.0367423 C89.1904612,38.0223537 88.846,38.8596206 88.1570777,39.5485429 C87.4681554,40.2374652 86.6308885,40.5819264 85.6452771,40.5819264 L85.6452771,40.5819264 Z M95.7377373,42 C95.7980809,42 95.8508815,41.9773712 95.8961392,41.9321135 C95.9413969,41.8868558 95.9640257,41.8340552 95.9640257,41.7737117 L95.9640257,41.7737117 L95.9640257,34.6984293 L101.047971,41.7887975 C101.148543,41.9295992 101.284316,42 101.45529,42 L101.45529,42 L102.375529,42 C102.425815,42 102.471073,41.9798855 102.511302,41.9396564 C102.551531,41.8994274 102.571645,41.8541697 102.571645,41.8038834 L102.571645,41.8038834 L102.571645,32.1489139 C102.571645,32.0885704 102.549017,32.0357698 102.503759,31.9905121 C102.458501,31.9452544 102.405701,31.9226256 102.345357,31.9226256 L102.345357,31.9226256 L101.274259,31.9226256 C101.213915,31.9226256 101.161115,31.9452544 101.115857,31.9905121 C101.070599,32.0357698 101.047971,32.0885704 101.047971,32.1489139 L101.047971,32.1489139 L101.047971,39.0884233 L96.0847128,32.1338281 C95.9841402,31.9930264 95.8483672,31.9226256 95.6773938,31.9226256 L95.6773938,31.9226256 L94.6364674,31.9226256 C94.5761238,31.9226256 94.5283518,31.9427401 94.4931514,31.9829692 C94.457951,32.0231982 94.4403508,32.0684559 94.4403508,32.1187422 L94.4403508,32.1187422 L94.4403508,41.7737117 C94.4403508,41.8340552 94.4629797,41.8868558 94.5082373,41.9321135 C94.553495,41.9773712 94.6062956,42 94.6666392,42 L94.6666392,42 L95.7377373,42 Z" id="BUILTON" fill="#FFFFFF" fill-rule="nonzero" transform="translate(64.162970, 36.923598) rotate(0.746002) translate(-64.162970, -36.923598) "></path>
            <g id="logo-dark" transform="translate(126.000000, 17.000000)">
                <path d="M26.9110058,26.9211022 C26.9110058,20.2353357 22.2015109,14.7976496 15.4737135,14.7976496 C12.3790075,14.7976496 9.82250334,15.8227737 7.93870537,17.6502482 L7.93870537,0 L0,0 L0,38.3313138 L7.8490357,38.3313138 L7.8490357,35.7462262 L7.93870537,35.7462262 C9.64316401,37.6182555 12.3341727,39 15.4737135,39 C22.2015109,39 26.9110058,33.6068686 26.9110058,26.9211022 L26.9110058,26.9211022 Z M18.4789335,26.9211022 C18.4789335,30.0410291 16.3259428,32.2696788 13.0967324,32.2696788 C10.0018427,32.2696788 7.75936604,30.0410291 7.75936604,26.9211022 C7.75936604,23.7564379 10.1365309,21.5279708 13.0967324,21.5279708 C16.1017687,21.5279708 18.4789335,23.7564379 18.4789335,26.9211022 Z M46.2868197,38.3313138 L54.2255251,38.3313138 L54.2255251,25.4056934 C54.2255251,23.132489 56.5578552,20.9485766 58.93502,20.9485766 C61.4915242,20.9485766 63.0612946,23.132489 63.0612946,25.4056934 L63.0612946,38.3313138 L71,38.3313138 L71,23.2661532 C71,16.8924525 65.1244319,14.7976496 60.9084877,14.7976496 C58.3968183,14.7976496 56.1093231,16.0902847 54.3151948,17.8730218 L54.2255251,17.8730218 L54.2255251,0 L46.2868197,0 L46.2868197,38.3313138 Z" id="Shape" fill="#FFFFFF"></path>
                <polygon id="Path" fill="#FFFFFF" points="76 15 84 15 84 38 76 38"></polygon>
                <path d="M95.2420234,15.6630955 L86,15.6630955 L98.1026711,38.3369045 L103.383853,38.3369045 L115.486524,15.6630955 L106.244501,15.6630955 L100.743172,27.9944621 L95.2420234,15.6630955 Z M139.956007,28.0828266 C140,27.8177332 140,27.3315477 140,27.0220911 C140,19.066394 134.762811,15 127.897329,15 C121.07584,15 115.486524,20.3922228 115.486524,27.0220911 C115.486524,33.6077772 121.07584,39 127.897329,39 C132.914371,39 137.051366,37.3645335 139.60388,33.0772284 L133.970571,30.2486608 C132.078137,32.2817673 130.977943,32.7679528 128.469422,32.7679528 C126.489002,32.7679528 123.584361,31.5744896 123.584361,28.0828266 L139.956007,28.0828266 Z M123.804327,23.7513392 C123.936307,21.6740505 125.432801,20.0829473 128.117295,20.0829473 C130.40585,20.0829473 132.034144,21.3645939 132.38627,23.7513392 L123.804327,23.7513392 L123.804327,23.7513392 Z" id="Shape" fill="#FFFFFF"></path>
                <path d="M36,11 L41,13.9000882 L41,19.7002647 L36,22.6003529 L31,19.7002647 L31,13.9000882 L36,11 L36,11 Z M36,26.3996471 L41,29.2997353 L41,35.0999118 L36,38 L31,35.0999118 L31,29.2997353 L36,26.3996471 Z" id="Shape" fill="#F2AF0D"></path>
            </g>
        </g>
    </g>
</svg>