<?xml version="1.0" standalone="no"?>
<!DOCTYPE svg PUBLIC "-//W3C//DTD SVG 20010904//EN"
 "http://www.w3.org/TR/2001/REC-SVG-20010904/DTD/svg10.dtd">
<svg version="1.0" xmlns="http://www.w3.org/2000/svg"
 width="766.000000pt" height="766.000000pt" viewBox="0 0 766.000000 766.000000"
 preserveAspectRatio="xMidYMid meet">
<metadata>
Created by potrace 1.14, written by Peter Selinger 2001-2017
</metadata>
<g transform="translate(0.000000,766.000000) scale(0.100000,-0.100000)"
fill="#000000" stroke="none">
<path d="M0 3850 l0 -1050 215 0 215 0 0 72 0 72 33 -31 c111 -108 315 -170
467 -141 25 5 55 10 68 13 111 20 245 111 340 229 32 40 91 177 106 246 55
249 -8 483 -175 651 -147 149 -349 208 -559 165 -82 -17 -200 -71 -242 -111
-15 -14 -29 -25 -32 -25 -3 0 -6 111 -5 248 0 136 0 352 -1 480 l0 232 -215 0
-215 0 0 -1050z m842 -158 c142 -69 203 -246 135 -395 -112 -244 -492 -205
-546 57 -3 17 -5 59 -4 93 2 110 74 212 178 253 66 26 173 23 237 -8z"/>
<path d="M2520 4893 c0 -10 0 -1876 0 -2000 l0 -93 215 0 214 0 3 383 c3 370
4 383 25 422 80 150 271 192 379 86 69 -68 69 -64 72 -498 l3 -393 217 0 217
0 -1 447 c-1 395 -3 455 -18 508 -35 121 -118 214 -241 270 -96 44 -154 57
-263 60 -133 4 -224 -29 -337 -120 l-55 -45 0 490 0 490 -215 0 c-118 0 -215
-3 -215 -7z"/>
<path d="M1890 4209 c-36 -21 -95 -56 -132 -76 -63 -35 -68 -41 -69 -73 -6
-202 -3 -272 11 -284 8 -7 69 -44 135 -83 l121 -69 134 78 135 78 0 151 c0 83
-2 154 -5 158 -4 7 -81 53 -235 141 -30 17 -31 17 -95 -21z"/>
<path d="M6845 4076 c-157 -36 -270 -100 -372 -210 -328 -351 -178 -907 286
-1063 265 -89 604 -18 775 161 40 42 101 125 94 130 -1 1 -71 37 -154 78
l-152 76 -48 -44 c-71 -66 -124 -87 -224 -92 -99 -5 -172 18 -229 70 -35 32
-81 128 -76 157 2 9 4 19 4 22 1 4 201 6 445 6 244 0 448 3 453 6 15 10 5 166
-16 250 -59 228 -207 378 -433 439 -96 25 -273 32 -353 14z m278 -299 c28 -17
56 -44 71 -70 28 -47 43 -96 30 -98 -5 -1 -112 -2 -237 -3 l-229 -1 6 39 c9
55 53 111 106 135 64 28 68 29 141 27 51 -2 76 -8 112 -29z"/>
<path d="M4159 4052 l-26 -3 -1 -625 -1 -624 217 0 217 0 -1 623 c-1 342 -2
624 -3 627 -1 5 -358 7 -402 2z"/>
<path d="M4670 4040 c0 -9 4 -20 9 -25 4 -6 31 -53 58 -105 45 -85 148 -279
238 -445 18 -33 73 -136 123 -230 50 -93 122 -228 161 -300 l69 -130 149 -3
149 -2 26 52 c30 59 98 187 205 383 38 72 94 175 123 230 29 55 111 208 182
339 71 132 125 242 119 245 -5 3 -118 6 -251 5 l-242 0 -14 -25 c-7 -13 -25
-49 -38 -79 -13 -30 -35 -80 -49 -110 -13 -30 -64 -143 -112 -250 -47 -107
-90 -199 -94 -203 -5 -5 -15 9 -24 30 -13 32 -53 122 -98 218 -5 11 -49 110
-98 219 l-89 200 -251 0 c-220 1 -251 -1 -251 -14z"/>
<path d="M1864 3366 c-49 -29 -108 -63 -131 -76 -24 -13 -43 -28 -44 -34 0 -6
-1 -74 -2 -151 -2 -157 -2 -158 80 -200 21 -11 71 -40 112 -64 l74 -45 36 21
c20 11 74 42 121 68 47 26 92 54 100 61 13 11 15 41 15 163 0 85 -5 154 -10
159 -6 5 -30 21 -55 34 -25 14 -69 39 -98 56 -114 68 -98 68 -198 8z"/>
</g>
</svg>
